<?xml version="1.0" standalone="no"?>
<!DOCTYPE svg PUBLIC "-//W3C//DTD SVG 20010904//EN"
 "http://www.w3.org/TR/2001/REC-SVG-20010904/DTD/svg10.dtd">
<svg version="1.0" xmlns="http://www.w3.org/2000/svg"
 width="2620.000000pt" height="544.000000pt" viewBox="0 0 2620.000000 544.000000"
 preserveAspectRatio="xMidYMid meet">

<g transform="translate(0.000000,544.000000) scale(0.100000,-0.100000)"
fill="#000000" stroke="none">
<path d="M273 5260 c-32 -9 -62 -35 -73 -64 -11 -29 -15 -1852 -4 -1893 4 -13
21 -28 45 -37 33 -14 99 -16 437 -16 218 0 415 -5 436 -10 62 -14 83 -43 95
-133 6 -44 11 -240 11 -442 0 -249 4 -372 11 -389 21 -45 42 -48 476 -50 436
-3 489 -8 517 -51 29 -45 36 -138 36 -519 0 -287 3 -387 13 -406 21 -42 63
-49 315 -49 215 -1 236 -3 273 -22 37 -18 56 -20 192 -17 104 1 159 -1 173
-10 25 -13 32 -42 40 -162 3 -46 8 -89 12 -94 4 -6 9 -161 12 -343 5 -317 6
-333 25 -353 l21 -20 3534 0 c1944 0 3543 0 3553 0 9 0 26 15 37 33 19 30 20
51 20 372 1 350 9 500 30 547 9 18 28 33 59 45 41 15 94 18 451 20 258 2 415
7 432 14 58 23 58 22 61 466 2 396 3 410 25 464 22 55 23 56 80 69 42 10 160
15 441 16 212 1 399 5 417 9 18 3 42 17 54 32 20 25 20 35 20 902 1 482 5 908
9 947 11 90 33 138 74 156 26 10 210 13 982 13 899 0 952 -1 983 -18 68 -37
65 10 67 -1027 1 -514 5 -945 9 -957 4 -11 23 -29 42 -38 31 -15 85 -17 452
-19 397 -2 419 -3 462 -22 72 -33 72 -34 79 -526 3 -234 8 -428 11 -430 3 -2
16 -12 29 -23 22 -19 42 -20 445 -25 416 -5 422 -5 469 -28 34 -17 49 -31 53
-50 3 -15 9 -34 12 -42 3 -8 9 -205 12 -437 5 -408 6 -423 25 -443 l21 -20
3023 0 c2298 0 3027 3 3038 12 36 30 38 49 44 453 6 427 13 496 52 517 63 33
121 38 510 38 414 0 435 2 464 49 9 14 12 123 14 392 1 369 8 478 32 528 23
48 65 53 497 57 217 1 409 5 426 9 17 3 40 15 52 28 20 21 21 33 24 432 3 374
5 415 23 469 14 42 26 61 45 69 16 8 177 13 472 17 l448 5 27 28 28 27 0 945
0 945 -30 30 -30 30 -12827 3 c-7055 1 -12835 0 -12845 -3z m2547 -998 c212
-4 391 -11 399 -16 37 -24 40 -62 42 -507 0 -239 3 -449 6 -467 l5 -32 519 2
519 3 0 -503 c0 -328 4 -510 10 -523 10 -18 27 -19 504 -19 441 0 495 -2 500
-16 11 -28 7 -896 -5 -936 -18 -69 -14 -68 -506 -68 -485 0 -465 -3 -497 65
-16 32 -17 81 -15 491 1 250 -1 457 -4 460 -3 3 -221 7 -484 8 -332 1 -484 5
-498 13 -47 26 -68 61 -65 105 1 24 3 239 4 478 l1 435 -489 2 c-371 1 -495 4
-513 14 -15 8 -28 30 -38 63 -19 62 -19 77 0 112 22 43 22 502 -1 565 -27 77
2 236 48 266 20 12 100 22 138 16 19 -3 208 -8 420 -11z m2423 7 c89 -22 81
23 87 -529 3 -268 8 -491 11 -494 3 -3 217 -6 475 -6 423 -1 474 -2 504 -18
20 -10 37 -27 41 -42 4 -14 7 -217 8 -452 1 -265 5 -446 12 -478 l11 -50 463
0 c324 0 472 -3 489 -11 49 -23 51 -42 51 -499 0 -457 -2 -476 -51 -499 -17
-8 -159 -11 -464 -11 l-440 0 -32 29 -33 29 -2 483 -3 482 -520 0 c-289 0
-523 3 -526 8 -3 5 0 9 7 9 8 0 8 4 1 13 -7 8 -10 175 -9 512 l2 500 -501 -3
c-472 -2 -502 -1 -510 15 -13 30 -18 851 -5 909 21 93 26 95 262 95 112 1 238
4 279 8 116 12 346 12 393 0z m13518 -36 c34 -34 39 -102 38 -543 0 -223 0
-415 0 -427 l1 -23 458 -1 c489 0 517 -3 539 -49 8 -18 13 -159 17 -490 2
-256 6 -473 7 -482 3 -17 34 -18 490 -18 552 0 523 4 540 -80 13 -69 11 -830
-2 -871 -24 -72 1 -69 -510 -69 l-459 0 -32 29 -33 29 -2 482 -2 482 -428 0
c-235 0 -464 -1 -508 -1 l-80 -1 4 -436 c2 -239 0 -456 -4 -481 -4 -31 -16
-55 -35 -75 l-28 -28 -457 0 c-294 0 -463 4 -476 10 -10 6 -26 25 -36 43 -15
29 -17 79 -17 494 -1 254 -4 464 -7 468 -4 3 -223 7 -487 8 -375 2 -483 6
-495 16 -9 7 -23 32 -32 55 -15 38 -16 96 -13 492 2 247 7 455 11 462 6 9 118
12 502 12 271 0 500 -3 509 -6 13 -5 15 -68 16 -497 0 -270 3 -501 6 -514 l6
-24 504 3 c329 2 507 7 513 13 17 17 15 1006 -1 1017 -7 4 -239 8 -515 8
l-502 0 -7 36 c-11 58 -12 834 -1 889 5 28 18 60 29 72 26 28 50 29 560 23
392 -5 398 -5 419 -27z m-2085 4 c21 -18 29 -37 35 -83 6 -42 13 -729 9 -909
0 -7 -157 -9 -455 -7 -304 2 -462 -1 -475 -8 -50 -27 -151 74 -121 122 8 12
11 141 11 413 0 417 3 449 47 483 13 9 123 12 469 12 l453 0 27 -23z"/>
</g>
</svg>
